<?xml version="1.0" ?><!DOCTYPE svg  PUBLIC '-//W3C//DTD SVG 1.1//EN'  'http://www.w3.org/Graphics/SVG/1.1/DTD/svg11.dtd'><svg height="750px" style="enable-background:new 0 0 512 512;" version="1.1" viewBox="0 0 512 512" width="750px" xml:space="preserve" xmlns="http://www.w3.org/2000/svg" xmlns:xlink="http://www.w3.org/1999/xlink"><g id="_x36_9_x2C__studio_x2C__design_x2C__coffee_x2C__lamp_x2C__flash"><g><path d="M189.351,102.627l-12.115-6.99l-13.661,23.668l-0.041,0.061l-2.855,4.953    l12.433,7.17l0.03-0.22l0.019-0.06v-0.039l0.021-0.101l0.02-0.101l0.021-0.119l0.009-0.101l0.021-0.099l0,0l0.02-0.101    l0.189-1.038h0.01l0.02-0.101l0.07-0.319l0.021-0.1l0.009-0.04l0.189-0.879l0.03-0.12l0.03-0.1v-0.04l0.021-0.06l0.02-0.1    l0.03-0.101l0.03-0.101l0.181-0.719l0.02-0.059l0.151-0.561l0,0l0.03-0.1l0.119-0.42l0.02-0.039l0.2-0.68l0.3-0.938l0.019-0.061    l0.03-0.1l0.33-0.92l0.03-0.1l0.021-0.061l0.398-1.037l0.011-0.041l0.06-0.159l0.149-0.36l0.032-0.1l0.198-0.459l0,0l0.4-0.898    l0.06-0.16l0.021-0.02l0.049-0.141l0.07-0.139l0.07-0.16l0.049-0.12l0.021-0.021l0.219-0.459l0.019-0.061l0.5-0.998l0.039-0.08    l0.03-0.06l0.081-0.159l0.081-0.141l0.069-0.16l0.021-0.02l0.06-0.119l0.079-0.16l0.081-0.14l0.06-0.12l0.02-0.04l0.091-0.14    l0.33-0.6l0.079-0.139l0.081-0.141l0,0l0.089-0.14l0.079-0.14l0.081-0.141l0.06-0.099l0.019-0.04l0.081-0.141l0.17-0.279    l0.049-0.08l0.03-0.04l0.249-0.399l0.011-0.02l0.021-0.04l0.06-0.101l0.079-0.119c1.039-1.638,2.167-3.176,3.365-4.654l0.051-0.06    c0.458-0.559,0.938-1.099,1.417-1.638l0.06-0.08h0.01c0.39-0.439,0.788-0.859,1.208-1.278v-0.02l0.081-0.061    c0.639-0.659,1.298-1.298,1.978-1.917l0.039-0.02l0.849-0.76l0.02-0.02l0.051-0.061L189.351,102.627z M169.417,99.392    l-8.568-4.952l-8.858,15.359l8.568,4.952L169.417,99.392z M349.834,380.83h-57.653l1.149,6.633h55.354L349.834,380.83z     M279.3,306.831h83.415l2.727-15.64h-88.869L279.3,306.831z M362.715,306.831H279.3l12.023,69.087h59.359L362.715,306.831z     M268.123,286.279c35.253,0,70.506,0,105.758,0v-12.983c-35.252,0-70.505,0-105.758,0V286.279z M359.511,255.4    c-25.675,0-51.341,0-77.007,0v13.002h77.007V255.4z M330.889,325.625c-2.566-3.295-6.07-5.332-9.886-5.332    s-7.31,2.037-9.878,5.332c-2.705,3.476-4.372,8.329-4.372,13.702c0,5.372,1.667,10.226,4.372,13.681    c2.568,3.316,6.063,5.354,9.878,5.354s7.319-2.037,9.886-5.333c2.697-3.476,4.375-8.329,4.375-13.701    C335.264,333.954,333.586,329.101,330.889,325.625z M321.003,315.379c5.411,0,10.276,2.776,13.751,7.251    c3.346,4.294,5.424,10.206,5.424,16.697s-2.078,12.403-5.414,16.698c-3.484,4.473-8.35,7.249-13.761,7.249    c-5.413,0-10.276-2.776-13.752-7.249c-3.345-4.295-5.414-10.207-5.414-16.698s2.069-12.403,5.414-16.697    C310.727,318.155,315.59,315.379,321.003,315.379z M311.935,245.754c-3.274-3.715-8.488-3.715-11.765,0    c-1.117,1.277-1.937,2.916-2.337,4.754h16.438C313.871,248.67,313.054,247.031,311.935,245.754z M235.797,359.999h-81.289    c-3.776,0-7.21,1.538-9.699,4.034c-2.486,2.477-4.034,5.912-4.034,9.688v13.742h108.763v-13.742c0-3.775-1.558-7.211-4.045-9.688    C243.008,361.537,239.572,359.999,235.797,359.999z M178.815,149.764c1.218,4.693,3.236,9.188,5.982,13.242l0.03,0.06l0.039,0.04    l0,0l0.041,0.039l0.021,0.061h0.009c3.027,4.414,6.851,8.209,11.285,11.205l42.664-73.9c-9.039-4.394-21.333-5.172-30.04-2.775    c-4.843,1.338-9.458,3.515-13.592,6.49h-0.02l-0.021,0.021l-0.019,0.021l-0.06,0.039l-0.11,0.08l-0.109,0.08l-0.11,0.08    l-0.23,0.16l-0.1,0.08l-0.119,0.099l-0.079,0.061l-0.032,0.021l-0.108,0.08l-0.111,0.08l-0.109,0.079l-0.061,0.06l-0.049,0.041    c-1.888,1.497-3.685,3.154-5.343,4.992c-1.978,2.197-3.764,4.634-5.303,7.291c-0.769,1.338-1.448,2.676-2.057,4.033l-0.06,0.141    l-0.53,1.238l-0.049,0.14l-0.051,0.14l-0.06,0.12v0.021l-0.049,0.119l-0.051,0.141l-0.06,0.139l-0.04,0.1l-0.009,0.041    l-0.051,0.14l-0.049,0.14l-0.051,0.141l-0.02,0.039l-0.04,0.1l-0.041,0.14l-0.06,0.141l-0.041,0.119v0.021l-0.049,0.12    l-0.051,0.14l-0.039,0.139l-0.03,0.08l-0.021,0.061l-0.049,0.14l-0.04,0.14l-0.049,0.141l-0.011,0.02l-0.04,0.119l-0.041,0.141    l-0.039,0.14l-0.041,0.101v0.039l-0.051,0.14l-0.039,0.161l-0.051,0.139l-0.011,0.021l-0.068,0.259l-0.04,0.141l-0.03,0.119    l-0.01,0.04l-0.041,0.14l-0.039,0.141l-0.041,0.139l-0.01,0.041l-0.03,0.119l-0.041,0.141l-0.039,0.139l-0.021,0.101l-0.011,0.04    l-0.03,0.159l-0.039,0.141l-0.04,0.14l-0.041,0.139l-0.03,0.161l-0.07,0.278l-0.019,0.141    C176.987,136.302,177.057,143.133,178.815,149.764z M243.167,102.848l-42.761,74.1l12.083,6.97l42.772-74.079L243.167,102.848z     M150.253,238.225l36.471-65.293c-1.258-1.258-2.446-2.557-3.555-3.914l-37.588,67.828    C147.207,237.125,148.776,237.604,150.253,238.225z M191.039,355.086l-41.045-75.777c-1.877,0.758-3.875,1.258-5.961,1.498    l40.484,74.279H191.039z M152.97,368.508c1.348-1.339,3.195-2.178,5.224-2.178c1.986,0,3.804,0.8,5.141,2.098l0.081,0.061    c1.339,1.357,2.178,3.195,2.178,5.232c0,1.996-0.8,3.814-2.097,5.152l-0.07,0.08c-1.349,1.338-3.206,2.157-5.232,2.157    c-1.988,0-3.806-0.799-5.143-2.077l-0.07-0.08c-1.35-1.358-2.188-3.195-2.188-5.232c0-1.997,0.809-3.814,2.099-5.133    L152.97,368.508z M158.194,371.244c-0.69,0-1.309,0.26-1.748,0.719c-0.459,0.459-0.74,1.078-0.74,1.758    c0,0.699,0.281,1.317,0.719,1.758c0.46,0.459,1.079,0.738,1.769,0.738c0.688,0,1.307-0.279,1.756-0.719    c0.449-0.46,0.73-1.078,0.73-1.777c0-0.68-0.281-1.299-0.719-1.758C159.501,371.504,158.882,371.244,158.194,371.244z     M230.516,162.486c0.647,0.08,1.327,0.12,2.067,0.12c4.613,0,8.796-1.838,11.804-4.794c3.015-2.956,4.873-7.051,4.873-11.564    c0-2.396-0.52-4.674-1.458-6.711l-0.041-0.1c-0.56-1.178-1.239-2.277-2.056-3.275L230.516,162.486z M133.517,250.607    c2.078-2.078,4.943-3.355,8.109-3.355c3.155,0,6.031,1.277,8.098,3.355c2.069,2.076,3.346,4.953,3.346,8.09    c0,3.154-1.277,6.03-3.346,8.107c-2.086,2.077-4.952,3.355-8.098,3.355c-3.076,0-5.872-1.218-7.93-3.195l-0.179-0.16    c-2.067-2.077-3.355-4.933-3.355-8.107C130.162,255.541,131.45,252.684,133.517,250.607z M141.625,252.166    c-1.818,0-3.455,0.738-4.634,1.916c-1.178,1.179-1.917,2.816-1.917,4.615c0,1.816,0.739,3.455,1.917,4.633l0.1,0.119    c1.179,1.119,2.776,1.798,4.534,1.798c1.797,0,3.436-0.719,4.624-1.897c1.188-1.197,1.918-2.836,1.918-4.652    c0-1.799-0.73-3.437-1.907-4.615C145.061,252.904,143.422,252.166,141.625,252.166z M171.316,368.508    c1.348-1.339,3.195-2.178,5.222-2.178c1.997,0,3.814,0.8,5.132,2.098l0.081,0.061c1.348,1.357,2.177,3.195,2.177,5.232    c0,1.996-0.8,3.814-2.088,5.152l-0.07,0.08c-1.358,1.338-3.195,2.157-5.232,2.157c-2.038,0-3.894-0.819-5.233-2.157    s-2.157-3.195-2.157-5.232c0-1.997,0.799-3.814,2.086-5.133L171.316,368.508z M176.538,371.244c-0.69,0-1.308,0.26-1.758,0.719    c-0.449,0.459-0.718,1.078-0.718,1.758c0,0.679,0.279,1.317,0.718,1.758c0.451,0.459,1.079,0.738,1.758,0.738    c0.689,0,1.309-0.279,1.758-0.719c0.449-0.46,0.728-1.078,0.728-1.777c0-0.68-0.279-1.299-0.72-1.758    C177.847,371.504,177.228,371.244,176.538,371.244z M454.113,417.562c-0.311,0-0.59-0.06-0.87-0.159    c-0.26,0.1-0.55,0.159-0.858,0.159H248.771c-1.348,0-2.446-1.099-2.446-2.457c0-1.357,1.099-2.456,2.446-2.456h203.614    c0.309,0,0.599,0.06,0.858,0.159c0.28-0.1,0.56-0.159,0.87-0.159h29.429c1.358,0,2.457,1.099,2.457,2.456    c0,1.358-1.099,2.457-2.457,2.457H454.113z M28.458,417.562c-1.358,0-2.457-1.099-2.457-2.457c0-1.357,1.099-2.456,2.457-2.456    h126.07c1.358,0,2.457,1.099,2.457,2.456c0,1.358-1.099,2.457-2.457,2.457H28.458z M432.432,400.425    c1.348,0,2.456,1.099,2.456,2.456c0,1.358-1.108,2.457-2.456,2.457h-35.242c-1.348,0-2.447-1.099-2.447-2.457    c0-1.357,1.1-2.456,2.447-2.456H432.432z M205.769,211.041c0-1.357,1.099-2.457,2.446-2.457c1.358,0,2.457,1.1,2.457,2.457v44.919    c0,1.338-1.099,2.456-2.457,2.456c-1.348,0-2.446-1.118-2.446-2.456V211.041z M216.344,249.688c0-1.358,1.099-2.456,2.457-2.456    c1.358,0,2.457,1.098,2.457,2.456v44.919c0,1.338-1.099,2.457-2.457,2.457c-1.358,0-2.457-1.119-2.457-2.457V249.688z     M50.689,405.338c-1.35,0-2.448-1.099-2.448-2.457c0-1.357,1.098-2.456,2.448-2.456h294.25c1.358,0,2.457,1.099,2.457,2.456    c0,1.358-1.099,2.457-2.457,2.457H50.689z M141.625,241.398c-4.784,0-9.107,1.939-12.243,5.074    c-3.136,3.115-5.073,7.45-5.073,12.243c0,4.774,1.937,9.108,5.073,12.224c3.136,3.136,7.459,5.073,12.243,5.073    c4.773,0,9.107-1.938,12.243-5.073c3.127-3.115,5.064-7.449,5.064-12.224c0-4.793-1.938-9.128-5.064-12.243    C150.732,243.338,146.398,241.398,141.625,241.398z" style="fill-rule:evenodd;clip-rule:evenodd;"/></g></g><g id="Layer_1"/></svg>