<?xml version="1.0" standalone="no"?>
<!DOCTYPE svg PUBLIC "-//W3C//DTD SVG 20010904//EN"
 "http://www.w3.org/TR/2001/REC-SVG-20010904/DTD/svg10.dtd">
<svg version="1.0" xmlns="http://www.w3.org/2000/svg"
 width="744.000000pt" height="148.000000pt" viewBox="0 0 744.000000 148.000000"
 preserveAspectRatio="xMidYMid meet">

<g transform="translate(0.000000,148.000000) scale(0.100000,-0.100000)"
fill="#1b365d" stroke="none">
<path d="M665 1266 c-114 -28 -222 -107 -276 -201 -41 -71 -38 -118 8 -136 35
-13 59 3 87 60 47 91 158 161 260 164 97 2 132 -35 129 -137 -3 -108 -49 -195
-128 -241 -23 -14 -44 -25 -48 -25 -3 0 -3 70 0 155 5 140 4 157 -12 175 -22
25 -67 26 -88 2 -14 -15 -17 -75 -24 -432 -6 -288 -6 -423 1 -440 6 -13 24
-29 39 -34 23 -8 31 -6 50 12 21 21 22 32 25 211 l4 189 51 22 c67 29 122 37
133 19 5 -8 9 -93 9 -191 0 -202 4 -214 86 -256 37 -20 55 -23 112 -19 77 5
107 24 107 68 0 47 -25 62 -89 55 -44 -5 -61 -3 -80 10 l-24 17 7 149 c4 92 3
163 -4 187 -10 38 -41 79 -74 98 -16 9 -16 12 8 48 38 55 57 129 57 224 0 70
-4 92 -26 137 -51 104 -161 144 -300 110z"/>
<path d="M4490 1247 c-132 -37 -226 -156 -266 -335 -24 -107 -15 -340 16 -437
31 -97 64 -159 113 -212 142 -155 293 -88 378 167 12 36 23 86 23 111 1 46 1
47 39 52 50 7 67 23 67 62 0 42 -18 56 -77 59 -26 2 -57 7 -68 13 -35 19 -101
25 -143 13 -105 -28 -161 -145 -86 -179 22 -10 31 -9 50 4 13 8 28 24 34 35 8
15 21 20 54 20 49 0 62 -8 41 -24 -8 -6 -26 -51 -40 -101 -30 -105 -66 -171
-101 -187 -30 -14 -62 6 -111 71 -64 84 -101 274 -83 433 16 137 58 232 125
284 31 23 50 29 117 34 63 4 83 10 94 25 19 26 17 59 -5 79 -25 23 -114 29
-171 13z"/>
<path d="M1702 1138 c-12 -6 -24 -21 -27 -32 -2 -12 -7 -184 -10 -384 -6 -323
-5 -366 9 -388 11 -16 26 -24 46 -24 50 0 60 20 60 126 0 52 4 94 9 94 5 0 26
-19 46 -42 128 -144 176 -188 205 -188 31 0 60 30 60 62 0 9 -48 70 -107 135
-60 65 -114 126 -121 135 -11 14 -7 22 31 58 59 54 137 168 188 274 44 91 45
115 6 141 -41 26 -65 9 -109 -79 -66 -132 -162 -266 -189 -266 -5 0 -9 78 -9
174 l0 175 -26 20 c-30 24 -31 24 -62 9z"/>
<path d="M1289 1117 c-9 -12 -62 -188 -118 -391 -110 -397 -112 -408 -56 -422
47 -12 69 15 95 113 34 130 27 123 125 123 l84 0 11 -42 c38 -145 52 -179 76
-190 32 -15 71 3 79 35 4 16 -25 137 -80 333 -129 464 -121 439 -150 452 -36
17 -48 15 -66 -11z m70 -365 c12 -43 21 -81 21 -85 0 -4 -22 -7 -50 -7 -27 0
-50 3 -50 6 0 20 44 164 50 164 5 0 17 -35 29 -78z"/>
<path d="M2785 1116 c-197 -93 -177 -319 41 -466 66 -45 93 -70 111 -104 21
-39 2 -81 -48 -107 -49 -25 -90 -24 -123 2 -22 17 -26 28 -26 74 0 59 -14 77
-57 78 -40 0 -63 -35 -63 -98 0 -124 76 -195 208 -195 68 0 147 34 186 80 97
115 58 250 -103 359 -110 75 -156 149 -132 213 19 50 94 80 140 56 14 -7 34
-31 45 -53 17 -33 27 -41 54 -43 45 -5 62 12 62 62 0 59 -39 112 -103 142 -67
31 -127 31 -192 0z"/>
<path d="M4975 1128 c-11 -6 -23 -16 -27 -22 -14 -20 -8 -456 6 -538 16 -85
51 -170 86 -207 30 -31 80 -51 128 -51 48 0 129 41 161 81 66 84 98 238 108
504 5 169 4 182 -14 204 -22 27 -70 32 -88 8 -8 -11 -14 -89 -19 -214 -9 -278
-35 -389 -102 -442 -53 -42 -94 -23 -124 55 -27 74 -44 287 -36 457 6 126 6
128 -18 152 -28 28 -33 29 -61 13z"/>
<path d="M5509 1123 c-11 -13 -15 -96 -21 -392 -8 -416 -7 -421 52 -421 53 0
60 18 60 151 0 87 3 121 13 123 6 3 45 14 86 26 138 40 208 146 199 299 -2 36
-12 83 -22 104 -37 75 -151 127 -282 127 -54 0 -75 -4 -85 -17z m183 -115 c22
-6 51 -25 65 -42 22 -27 25 -37 21 -93 -6 -90 -49 -140 -135 -158 l-33 -7 0
156 c0 176 -4 170 82 144z"/>
<path d="M5972 1124 c-14 -10 -22 -26 -22 -44 0 -47 30 -60 139 -60 l94 0 -7
-339 c-7 -335 -7 -340 13 -360 26 -26 55 -27 81 -1 17 17 20 34 21 128 1 59 4
211 8 337 l6 230 102 3 c96 3 104 4 119 27 17 26 12 55 -12 80 -23 23 -509 22
-542 -1z"/>
<path d="M6687 1123 c-17 -20 -217 -725 -217 -766 0 -25 32 -57 56 -57 32 0
57 39 84 135 l27 100 89 0 88 0 30 -104 c22 -74 37 -108 53 -118 27 -18 58 -9
78 21 14 20 6 53 -90 397 -108 383 -118 409 -165 409 -9 0 -24 -8 -33 -17z
m68 -372 c9 -36 19 -71 22 -78 4 -10 -9 -13 -51 -13 -40 0 -54 3 -51 13 2 6
14 45 25 86 12 40 25 70 29 65 5 -5 16 -38 26 -73z"/>
<path d="M2213 1120 c-12 -5 -26 -17 -31 -27 -11 -21 -28 -719 -18 -751 11
-35 56 -42 220 -36 168 7 196 16 196 63 0 53 -22 61 -169 61 l-132 0 3 98 3
97 103 5 c110 5 122 11 122 61 0 47 -26 59 -128 59 l-92 0 0 125 0 125 120 0
c115 0 122 1 145 25 30 29 31 45 6 76 -18 23 -25 24 -173 26 -84 1 -163 -2
-175 -7z"/>
<path d="M3166 1098 c-11 -18 -15 -99 -21 -389 -7 -334 -6 -367 10 -382 22
-22 68 -22 88 1 13 14 17 45 19 157 l3 140 98 3 97 3 0 -144 c0 -127 2 -146
18 -160 24 -22 65 -22 85 1 13 14 16 72 23 387 6 342 5 372 -10 388 -25 24
-72 22 -90 -5 -13 -18 -16 -54 -16 -185 l0 -163 -100 0 -100 0 0 169 c0 141
-3 172 -16 185 -23 24 -71 20 -88 -6z"/>
</g>
</svg>
