<svg xmlns:dc="http://purl.org/dc/elements/1.1/" xmlns:cc="http://creativecommons.org/ns#"
    xmlns:rdf="http://www.w3.org/1999/02/22-rdf-syntax-ns#" xmlns:svg="http://www.w3.org/2000/svg"
    xmlns="http://www.w3.org/2000/svg" viewBox="0 0 4789.9067 2694.3201" height="2694.3201" width="4789.9067"
    xml:space="preserve" id="svg2" version="1.1">
    <metadata id="metadata8">
        <rdf:RDF>
            <cc:Work rdf:about="">
                <dc:format>image/svg+xml</dc:format>
                <dc:type rdf:resource="http://purl.org/dc/dcmitype/StillImage" />
            </cc:Work>
        </rdf:RDF>
    </metadata>
    <defs id="defs6">
        <linearGradient id="linearGradient28" spreadMethod="pad"
            gradientTransform="matrix(3312.8865,-2714.7761,-2714.7761,-3312.8865,94.196556,2405.105)"
            gradientUnits="userSpaceOnUse" y2="0" x2="1" y1="0" x1="0">
            <stop id="stop24" offset="0" style="stop-opacity:1;stop-color:#f7f6d4" />
            <stop id="stop26" offset="1" style="stop-opacity:1;stop-color:#c1dba1" />
        </linearGradient>
        <clipPath id="clipPath38" clipPathUnits="userSpaceOnUse">
            <path id="path36" d="M 0,2020.74 H 3592.43 V 0 H 0 Z" />
        </clipPath>
        <clipPath id="clipPath46" clipPathUnits="userSpaceOnUse">
            <path id="path44" d="M 658.71,1061.89 H 3592.43 V 0 H 658.71 Z" />
        </clipPath>
        <clipPath id="clipPath70" clipPathUnits="userSpaceOnUse">
            <path id="path68" d="m 929.68,1091.57 h 301.86 V 766.94 H 929.68 Z" />
        </clipPath>
        <clipPath id="clipPath86" clipPathUnits="userSpaceOnUse">
            <path id="path84" d="m 2389.96,1087.86 h 301.73 V 763.3 h -301.73 z" />
        </clipPath>
    </defs>
    <g transform="matrix(1.3333333,0,0,-1.3333333,0,2694.32)" id="g10">
        <g id="g12">
            <g id="g14">
                <g id="g20">
                    <g id="g22">
                        <path id="path30" style="fill:url(#linearGradient28);stroke:none"
                            d="M 0,0 H 3592.43 V 2020.74 H 0 Z" />
                    </g>
                </g>
            </g>
        </g>
        <g id="g32">
            <g clip-path="url(#clipPath38)" id="g34">
                <g id="g40">
                    <g id="g42" />
                    <g id="g54">
                        <g style="opacity:0.05000311" id="g52" clip-path="url(#clipPath46)">
                            <g id="g50" transform="translate(3592.4299,457.91)">
                                <path id="path48" style="fill:#273349;fill-opacity:1;fill-rule:nonzero;stroke:none"
                                    d="m 0,0 v -457.91 h -2181.7 l -752.02,752.02 c 72.58,-6.33 161.77,-7.78 262.56,4.61 23.57,2.9 46.39,6.38 68.45,10.34 v -0.03 c 42.51,7.62 82.17,16.99 118.75,27.28 3.18,0.89 6.33,1.79 9.46,2.7 1.52,0.43 3.04,0.88 4.55,1.32 0.04,0.01 0.08,0.02 0.12,0.04 1.55,0.45 3.1,0.91 4.64,1.37 9.24,2.75 18.28,5.55 27.1,8.4 1.45,0.46 2.9,0.93 4.34,1.4 2.54,0.83 5.07,1.66 7.57,2.5 1.17,0.38 2.34,0.77 3.5,1.17 1.16,0.39 2.31,0.78 3.47,1.17 2.31,0.78 4.6,1.56 6.87,2.35 1.41,0.49 2.83,0.98 4.23,1.47 5.36,1.87 10.62,3.75 15.79,5.64 1.09,0.39 2.18,0.79 3.26,1.19 0.43,0.16 0.85,0.32 1.28,0.47 2.64,0.97 5.27,1.95 7.86,2.93 2.6,0.98 5.17,1.96 7.72,2.93 2.55,0.97 5.07,1.95 7.57,2.93 1.25,0.49 2.49,0.98 3.73,1.47 h 0.01 c -0.16,0.61 -0.32,1.22 -0.49,1.83 l 1.81,-0.5 -14.64,56.97 -10.72,41.69 c 460.67,89.3 936.26,75.4 1392.29,-41.69 h -196.51 l -14.65,-56.97 2.89,0.81 c -0.52,-1.95 -1.04,-3.9 -1.56,-5.85 2.47,-0.97 4.97,-1.95 7.5,-2.92 8.83,-3.42 17.97,-6.84 27.41,-10.25 2.11,-0.76 4.24,-1.52 6.38,-2.28 1.11,-0.4 2.23,-0.79 3.35,-1.18 1.12,-0.39 2.24,-0.79 3.37,-1.18 3.38,-1.19 6.8,-2.36 10.26,-3.53 1.15,-0.39 2.3,-0.78 3.46,-1.17 1.16,-0.39 2.33,-0.79 3.5,-1.17 2.33,-0.77 4.68,-1.55 7.05,-2.32 1.18,-0.39 2.37,-0.78 3.56,-1.16 1.19,-0.38 2.39,-0.77 3.59,-1.15 1.2,-0.39 2.4,-0.78 3.61,-1.15 2.5,-0.79 5.01,-1.58 7.55,-2.37 3.58,-1.11 7.2,-2.22 10.85,-3.31 6.43,-1.93 12.96,-3.83 19.59,-5.71 2.26,-0.64 4.53,-1.28 6.82,-1.91 8,-2.21 16.14,-4.38 24.42,-6.49 1.65,-0.43 3.31,-0.85 4.98,-1.26 1.67,-0.43 3.34,-0.84 5.02,-1.25 1.68,-0.42 3.37,-0.83 5.06,-1.24 1.7,-0.42 3.4,-0.83 5.12,-1.23 1.69,-0.41 3.39,-0.81 5.09,-1.2 3.33,-0.78 6.68,-1.55 10.05,-2.3 0.54,-0.13 1.08,-0.25 1.63,-0.37 11.72,-2.63 23.69,-5.13 35.91,-7.48 1.81,-0.36 3.63,-0.71 5.45,-1.04 3.66,-0.7 7.34,-1.38 11.04,-2.04 v 0.02 c 22.12,-3.98 45.01,-7.48 68.65,-10.38 100.79,-12.39 189.97,-10.94 262.56,-4.61 -26.91,52.07 -53.82,104.13 -80.74,156.19 19.38,28.66 38.76,57.33 58.15,86 16.08,23.79 32.16,47.58 48.25,71.37 l 284.92,-284.92 z" />
                            </g>
                        </g>
                    </g>
                </g>
                <g transform="translate(1231.53,835.67)" id="g56">
                    <path id="path58" style="fill:#509f37;fill-opacity:1;fill-rule:nonzero;stroke:none"
                        d="m 0,0 c -1.24,-0.49 -2.48,-0.98 -3.73,-1.47 -2.5,-0.98 -5.02,-1.96 -7.57,-2.93 -2.55,-0.97 -5.12,-1.95 -7.72,-2.93 -2.59,-0.98 -5.22,-1.96 -7.86,-2.93 -0.43,-0.15 -0.85,-0.31 -1.28,-0.47 -1.08,-0.39 -2.17,-0.79 -3.26,-1.19 -5.17,-1.89 -10.43,-3.77 -15.79,-5.64 -1.4,-0.49 -2.82,-0.98 -4.23,-1.47 -2.28,-0.78 -4.57,-1.57 -6.87,-2.35 -1.16,-0.39 -2.31,-0.78 -3.47,-1.17 -1.17,-0.39 -2.33,-0.78 -3.5,-1.17 -2.5,-0.84 -5.03,-1.67 -7.57,-2.5 -1.44,-0.47 -2.89,-0.94 -4.34,-1.4 -8.82,-2.85 -17.86,-5.65 -27.1,-8.4 -1.54,-0.46 -3.09,-0.91 -4.64,-1.37 -0.04,-0.02 -0.08,-0.03 -0.12,-0.04 -1.51,-0.44 -3.03,-0.88 -4.55,-1.32 -3.13,-0.9 -6.28,-1.8 -9.46,-2.7 -36.58,-10.27 -76.24,-19.64 -118.75,-27.25 -22.06,-3.96 -44.88,-7.44 -68.45,-10.34 -100.79,-12.39 -189.98,-10.94 -262.56,-4.61 26.91,52.06 53.82,104.12 80.73,156.18 -35.46,52.46 -70.93,104.92 -106.39,157.38 58.21,-10.97 126.48,-19.17 202.87,-19.71 32.53,-0.23 63.83,0.96 93.78,3.23 32.49,2.46 63.4,6.21 92.56,10.84 38.23,6.07 73.48,13.65 105.4,21.83 5.51,1.4 10.91,2.83 16.22,4.27 0.05,0.01 0.09,0.02 0.13,0.04 2.41,0.65 4.8,1.3 7.17,1.96 4.21,1.17 8.34,2.35 12.41,3.53 3.55,-13.36 7.1,-26.73 10.64,-40.09 0.83,-3.11 1.65,-6.21 2.48,-9.31 13.11,-49.39 26.21,-98.79 39.34,-148.19 V 58.3 C -10.48,39.48 -5.49,20.66 -0.49,1.84 -0.33,1.23 -0.17,0.61 0,0" />
                </g>
                <g transform="translate(2882.05,904.52)" id="g60">
                    <path id="path62" style="fill:#509f37;fill-opacity:1;fill-rule:nonzero;stroke:none"
                        d="m 0,0 c 26.92,-52.06 53.83,-104.12 80.74,-156.19 -72.59,-6.33 -161.77,-7.78 -262.56,4.61 -23.64,2.9 -46.53,6.4 -68.65,10.38 -3.7,0.65 -7.38,1.33 -11.04,2.02 -1.82,0.34 -3.64,0.69 -5.45,1.04 -12.22,2.36 -24.19,4.86 -35.91,7.48 -0.55,0.12 -1.09,0.24 -1.63,0.37 -3.37,0.76 -6.72,1.53 -10.05,2.3 -1.7,0.4 -3.4,0.8 -5.09,1.2 -1.72,0.4 -3.42,0.81 -5.12,1.23 -1.69,0.41 -3.38,0.82 -5.06,1.24 -1.67,0.41 -3.35,0.83 -5.02,1.25 -1.66,0.41 -3.33,0.84 -4.98,1.26 -8.28,2.11 -16.42,4.28 -24.42,6.49 -2.29,0.64 -4.56,1.27 -6.82,1.91 -6.63,1.88 -13.16,3.78 -19.59,5.71 -3.65,1.09 -7.27,2.2 -10.85,3.31 -2.54,0.79 -5.05,1.58 -7.55,2.37 -1.21,0.38 -2.41,0.76 -3.61,1.15 -1.2,0.38 -2.4,0.77 -3.59,1.15 -1.19,0.39 -2.38,0.77 -3.56,1.16 -2.37,0.77 -4.72,1.55 -7.05,2.32 -1.17,0.39 -2.34,0.78 -3.5,1.17 -1.16,0.39 -2.31,0.78 -3.46,1.17 -3.46,1.17 -6.88,2.34 -10.26,3.53 -1.13,0.39 -2.25,0.79 -3.37,1.18 -1.12,0.39 -2.24,0.79 -3.35,1.18 -2.14,0.76 -4.27,1.52 -6.38,2.28 -9.44,3.41 -18.58,6.83 -27.41,10.25 -2.52,0.98 -5.02,1.96 -7.49,2.93 0.52,1.95 1.03,3.89 1.55,5.84 0.85,3.22 1.71,6.44 2.57,9.66 4.11,15.5 8.22,31 12.34,46.5 4.29,16.16 8.57,32.31 12.87,48.47 0.8,3.01 1.59,6.02 2.4,9.03 8.77,33.07 17.55,66.14 26.33,99.21 3.29,12.4 6.59,24.79 9.88,37.18 v 0.02 c 35.87,-10.4 76.9,-20.46 122.5,-28.47 1.63,-0.29 3.26,-0.57 4.9,-0.85 0.44,-0.08 0.87,-0.15 1.31,-0.22 4.35,-0.75 8.74,-1.47 13.17,-2.17 1.81,-0.28 3.62,-0.57 5.45,-0.84 0.01,0 0.02,0 0.03,-0.01 3.64,-0.56 7.3,-1.1 10.99,-1.63 1.44,-0.2 2.88,-0.41 4.33,-0.61 1.72,-0.24 3.45,-0.48 5.18,-0.71 1.73,-0.24 3.47,-0.47 5.21,-0.69 1.74,-0.23 3.49,-0.45 5.24,-0.67 1.6,-0.21 3.2,-0.4 4.81,-0.59 2.13,-0.27 4.26,-0.52 6.4,-0.76 1.42,-0.17 2.85,-0.33 4.28,-0.49 0.43,-0.05 0.85,-0.1 1.28,-0.14 1.5,-0.17 3.02,-0.33 4.53,-0.49 1.8,-0.19 3.6,-0.38 5.41,-0.57 3.57,-0.36 7.16,-0.71 10.78,-1.04 0.04,-0.01 0.08,-0.01 0.13,-0.01 3.65,-0.34 7.33,-0.66 11.03,-0.96 1.85,-0.15 3.71,-0.3 5.57,-0.44 30.36,-2.34 62.11,-3.56 95.13,-3.33 34.38,0.24 67.12,2.03 98.03,4.93 37.78,3.54 72.84,8.74 104.85,14.77 C 90.31,133.58 74.23,109.79 58.15,86 38.76,57.33 19.38,28.66 0,0" />
                </g>
                <g id="g64">
                    <g id="g66" />
                    <g id="g78">
                        <g style="opacity:0.35000604" id="g76" clip-path="url(#clipPath70)">
                            <g id="g74" transform="translate(1231.54,835.67)">
                                <path id="path72" style="fill:#436f41;fill-opacity:1;fill-rule:nonzero;stroke:none"
                                    d="m 0,0 h -0.01 c -1.24,-0.49 -2.48,-0.98 -3.73,-1.47 -2.5,-0.97 -5.02,-1.95 -7.57,-2.93 -2.55,-0.97 -5.12,-1.95 -7.72,-2.93 -2.59,-0.97 -5.21,-1.95 -7.86,-2.93 -0.43,-0.15 -0.85,-0.31 -1.28,-0.47 -1.08,-0.39 -2.17,-0.79 -3.26,-1.19 -5.17,-1.88 -10.43,-3.76 -15.79,-5.64 -1.4,-0.49 -2.82,-0.98 -4.23,-1.47 -2.28,-0.78 -4.57,-1.57 -6.87,-2.35 -1.16,-0.39 -2.31,-0.78 -3.47,-1.17 -1.17,-0.39 -2.33,-0.78 -3.5,-1.17 -2.5,-0.84 -5.03,-1.67 -7.57,-2.5 -1.44,-0.47 -2.89,-0.94 -4.34,-1.4 -8.82,-2.85 -17.86,-5.65 -27.1,-8.4 -1.54,-0.46 -3.09,-0.91 -4.64,-1.37 -0.04,-0.02 -0.08,-0.03 -0.12,-0.04 -1.51,-0.44 -3.03,-0.88 -4.55,-1.32 -3.13,-0.9 -6.28,-1.8 -9.46,-2.7 -36.58,-10.29 -76.24,-19.66 -118.75,-27.28 v 0.03 c 5.06,32.61 9.52,87.36 -5.17,152.22 -13.47,59.51 -37.6,103.47 -54.85,129.91 -0.01,0.01 -0.01,0.02 -0.02,0.03 32.53,2.45 63.39,6.22 92.57,10.84 h 0.01 c 38.23,6.08 73.48,13.64 105.4,21.8 5.51,1.41 10.92,2.83 16.22,4.27 0.05,0.01 0.09,0.02 0.13,0.04 2.41,0.65 4.8,1.31 7.17,1.96 4.21,1.17 8.34,2.35 12.41,3.53 3.55,-13.36 7.1,-26.72 10.65,-40.09 0.82,-3.1 1.65,-6.2 2.47,-9.31 13.11,-49.39 26.21,-98.79 39.34,-148.19 V 58.3 c 5,-18.83 10.01,-37.64 15,-56.47 C -0.32,1.22 -0.16,0.61 0,0" />
                            </g>
                        </g>
                    </g>
                </g>
                <g id="g80">
                    <g id="g82" />
                    <g id="g94">
                        <g style="opacity:0.35000604" id="g92" clip-path="url(#clipPath86)">
                            <g id="g90" transform="translate(2634.29,910.89)">
                                <path id="path88" style="fill:#436f41;fill-opacity:1;fill-rule:nonzero;stroke:none"
                                    d="m 0,0 c -13.58,-63.57 -8.11,-116.76 -2.71,-147.57 v -0.02 c -3.7,0.66 -7.38,1.34 -11.04,2.04 -1.82,0.34 -3.64,0.69 -5.45,1.04 -12.22,2.35 -24.19,4.85 -35.91,7.48 -0.55,0.12 -1.09,0.24 -1.63,0.37 -3.37,0.76 -6.72,1.53 -10.05,2.3 -1.7,0.4 -3.4,0.8 -5.09,1.2 -1.72,0.4 -3.42,0.81 -5.12,1.23 -1.69,0.41 -3.38,0.82 -5.06,1.24 -1.67,0.41 -3.35,0.83 -5.02,1.25 -1.66,0.41 -3.33,0.84 -4.98,1.26 -8.28,2.11 -16.42,4.28 -24.42,6.49 -2.29,0.64 -4.56,1.27 -6.82,1.91 -6.63,1.88 -13.16,3.78 -19.59,5.71 -3.65,1.1 -7.27,2.2 -10.85,3.31 -2.54,0.79 -5.05,1.58 -7.55,2.37 -1.21,0.38 -2.41,0.76 -3.61,1.15 -1.2,0.38 -2.4,0.77 -3.59,1.15 -1.19,0.39 -2.38,0.77 -3.56,1.16 -2.37,0.77 -4.72,1.55 -7.05,2.32 -1.17,0.39 -2.34,0.78 -3.5,1.17 -1.16,0.39 -2.31,0.78 -3.46,1.17 -3.46,1.17 -6.88,2.35 -10.26,3.53 -1.13,0.39 -2.25,0.79 -3.37,1.18 -1.12,0.39 -2.24,0.79 -3.35,1.18 -2.14,0.76 -4.27,1.52 -6.38,2.28 -9.44,3.41 -18.58,6.83 -27.41,10.25 -2.53,0.97 -5.03,1.95 -7.5,2.92 0.52,1.95 1.04,3.9 1.56,5.85 0.85,3.22 1.71,6.44 2.57,9.66 4.12,15.5 8.24,30.98 12.37,46.5 v 0.01 c 4.27,16.15 8.55,32.3 12.84,48.46 0.8,3.01 1.59,6.02 2.4,9.03 8.77,33.07 17.55,66.14 26.33,99.21 3.29,12.4 6.59,24.79 9.88,37.18 35.84,-10.42 76.9,-20.48 122.5,-28.45 1.63,-0.29 3.26,-0.57 4.9,-0.85 0.44,-0.08 0.87,-0.15 1.31,-0.22 4.35,-0.74 8.74,-1.45 13.17,-2.15 1.81,-0.29 3.63,-0.57 5.45,-0.86 0.01,0 0.02,0 0.03,-0.01 3.64,-0.55 7.3,-1.1 10.99,-1.63 1.44,-0.2 2.88,-0.41 4.33,-0.61 1.72,-0.24 3.44,-0.48 5.18,-0.71 1.73,-0.24 3.47,-0.47 5.21,-0.69 1.74,-0.23 3.49,-0.46 5.24,-0.67 1.6,-0.2 3.2,-0.4 4.81,-0.59 2.13,-0.27 4.26,-0.52 6.4,-0.76 1.42,-0.17 2.85,-0.33 4.28,-0.49 0.43,-0.05 0.85,-0.1 1.28,-0.14 1.5,-0.17 3.01,-0.34 4.53,-0.49 1.8,-0.2 3.6,-0.39 5.41,-0.57 3.57,-0.36 7.16,-0.71 10.78,-1.04 0.04,-0.01 0.08,-0.01 0.13,-0.01 3.65,-0.34 7.33,-0.66 11.03,-0.96 1.85,-0.15 3.7,-0.3 5.57,-0.44 0.41,-0.04 0.83,-0.07 1.25,-0.1 C 40.01,109.03 13.54,63.38 0,0" />
                            </g>
                        </g>
                    </g>
                </g>
                <g transform="translate(1232.86,837)" id="g96">
                    <path id="path98" style="fill:#417055;fill-opacity:1;fill-rule:nonzero;stroke:none"
                        d="m 0,0 -1.81,0.5 -0.01,0.01 -202.2,56.46 -4.51,1.26 149.9,156.25 h 0.01 l 2.75,2.87 41.23,-160.38 z" />
                </g>
                <g transform="translate(2597.1599,895.23)" id="g100">
                    <path id="path102" style="fill:#417055;fill-opacity:1;fill-rule:nonzero;stroke:none"
                        d="m 0,0 -4.51,-1.26 -201.13,-56.16 -2.89,-0.81 14.65,56.97 41.23,160.38 3.52,-3.67 z" />
                </g>
                <g transform="translate(2689.9026,1244.9363)" id="g104">
                    <path id="path106" style="fill:#509f37;fill-opacity:1;fill-rule:nonzero;stroke:none"
                        d="m 0,0 c -30.038,-116.989 -60.075,-233.978 -90.113,-350.966 -517.451,132.859 -1060.078,132.859 -1577.53,0 L -1757.755,0 C -1181.188,148.038 -576.568,148.038 0,0" />
                </g>
                <g transform="translate(1712.5883,1274.3959)" id="g108">
                    <path id="path110" style="fill:#ffffff;fill-opacity:1;fill-rule:nonzero;stroke:none"
                        d="m 0,0 c -0.096,2.555 -2.816,4.618 -8.171,6.167 -5.355,1.546 -12.063,2.142 -20.11,1.755 -20.022,-0.961 -39.235,-6.076 -57.396,-15.288 2.349,-0.194 8.615,-0.817 18.769,-1.95 15.048,-1.804 28.304,-2.466 39.827,-1.913 7.526,0.36 13.938,1.631 19.255,3.835 C -2.513,-5.19 0.103,-2.734 0,0 m -193.044,-33.783 c -0.764,7.015 -3.18,13.319 -7.277,18.903 -20.456,-5.551 -38.603,-18.051 -54.057,-37.355 -15.457,-19.318 -21.757,-37.275 -19.426,-53.684 0.895,-6.29 3.642,-11.289 8.221,-15.012 4.577,-3.726 9.751,-5.192 15.553,-4.414 15.082,2.024 28.648,12.992 41.139,32.976 12.492,19.976 17.929,39.46 15.847,58.586 M 2.229,0.349 c 0.177,-4.764 -4.708,-8.97 -14.598,-12.7 -9.891,-3.733 -22.038,-5.959 -36.493,-6.767 -14.549,-0.816 -32.715,-0.043 -54.612,2.105 -10.984,-6.494 -20.713,-15.685 -29.12,-27.53 -8.408,-11.846 -16.991,-28.383 -25.561,-49.613 -8.564,-21.232 -14.757,-35.482 -18.881,-42.71 -4.123,-7.228 -10.023,-14.459 -17.667,-21.729 -20.242,-18.838 -41.806,-29.852 -65.303,-33.176 -12.531,-1.773 -23.157,-0.647 -31.953,3.445 -8.793,4.09 -13.894,10.329 -15.234,18.784 -0.676,4.267 0.018,8.13 2.099,11.583 2.08,3.45 4.893,5.453 8.431,5.995 5.749,0.88 9.069,-1.662 9.956,-7.592 0.419,-2.794 -0.103,-5.323 -1.558,-7.594 -1.455,-2.273 -3.452,-3.602 -5.997,-3.992 -4.125,-0.634 -6.499,1.046 -7.125,5.058 -0.326,2.091 -0.842,3.082 -1.546,2.972 -1.499,-0.234 -1.909,-2.489 -1.238,-6.757 1.112,-7.061 5.71,-12.448 13.743,-16.215 8.035,-3.767 17.331,-4.876 27.96,-3.363 23.339,3.32 42.851,16.561 59.192,39.981 7.68,10.937 17.246,28.587 29.104,52.889 19.388,39.454 42.143,66.132 67.317,79.837 -5.071,0.405 -12.7,1.268 -22.909,2.524 -24.007,2.819 -42.365,3.402 -54.916,2.088 -1.303,-0.138 -5.191,-0.721 -11.657,-1.781 5.212,-7.241 8.32,-15.828 9.38,-25.738 2.061,-19.306 -3.684,-38.21 -16.788,-56.853 -13.11,-18.654 -27.925,-29.059 -44.863,-31.324 -7.045,-0.943 -13.08,0.558 -18.147,4.525 -5.065,3.964 -8.133,9.559 -9.169,16.81 -1.423,9.954 0.884,21.541 7.086,34.738 6.199,13.191 15.051,25.161 26.585,35.831 11.532,10.667 24.773,18.682 39.629,23.979 -8.385,8.561 -19.453,12.052 -33.082,10.377 -11.479,-1.412 -22.684,-6.046 -33.493,-13.89 -10.811,-7.844 -19.805,-17.814 -26.953,-29.853 -1.042,-1.851 -1.793,-2.808 -2.251,-2.876 -0.552,-0.082 -0.959,0.126 -1.22,0.622 -0.218,1.483 2.893,6.376 9.429,14.643 15.713,19.765 33.866,30.949 53.951,33.421 15.6,1.919 28.084,-1.87 37.3,-11.237 10.917,4.307 23.729,7.204 38.379,8.609 7.558,0.725 14.508,0.917 20.836,0.592 6.705,-0.394 23.219,-1.919 49.369,-5.099 20.879,10.408 41.45,16.077 61.396,17.039 20.52,0.976 30.92,-2.49 31.192,-10.058" />
                </g>
                <g transform="translate(1651.9246,1150.8518)" id="g112">
                    <path id="path114" style="fill:#ffffff;fill-opacity:1;fill-rule:nonzero;stroke:none"
                        d="m 0,0 c 0.044,-0.706 -0.354,-1.528 -1.189,-2.465 -1.753,-2.722 -3.5,-5.445 -5.242,-8.17 -15.198,-24.104 -26.503,-36.543 -34.584,-37.183 -4.209,-0.335 -7.773,0.898 -10.703,3.707 -2.931,2.809 -4.598,6.495 -4.987,11.066 -0.521,6.151 2.132,14.484 8.083,24.972 9.339,16.241 14.039,25.781 13.811,28.687 -0.258,3.43 -2.234,5.009 -5.925,4.724 -5.399,-0.418 -12.393,-6.194 -20.811,-17.361 -8.09,-10.699 -18.713,-30.595 -31.275,-59.771 -2.676,0.265 -4.935,0.302 -6.772,0.115 -1.925,-0.197 -4.481,-0.726 -7.659,-1.593 5.199,12.345 10.487,24.674 15.864,36.988 2.171,5.265 5.541,13.036 10.18,23.303 2.527,5.013 10.143,20.977 23.495,47.759 5.981,11.913 12.05,23.807 18.208,35.68 2.806,-0.32 5.177,-0.412 7.113,-0.272 3.686,0.267 7.161,0.953 10.422,2.061 -8.582,-15.358 -21.257,-38.372 -37.331,-69.205 -0.448,-0.929 -6.544,-12.84 -17.781,-35.841 14.443,26.047 26.924,39.4 36.735,40.157 3.873,0.298 7.309,-1.083 10.293,-4.135 2.983,-3.055 4.634,-6.918 4.968,-11.58 0.439,-6.073 -2.888,-15.105 -9.819,-27.131 -7.711,-13.421 -11.34,-21.781 -11.081,-25.031 0.309,-3.782 2.346,-5.516 6.122,-5.217 6.858,0.539 17.246,12.512 31.783,35.788 1.254,1.986 2.51,3.971 3.769,5.956 0.74,1.021 1.482,2.042 2.224,3.063 0.388,0.909 0.896,1.384 1.521,1.424 C -0.213,0.517 -0.022,0.351 0,0" />
                </g>
                <g transform="translate(1708.5078,1175.4434)" id="g116">
                    <path id="path118" style="fill:#ffffff;fill-opacity:1;fill-rule:nonzero;stroke:none"
                        d="m 0,0 c -0.176,4.317 -2.294,6.398 -6.352,6.223 -8.293,-0.359 -18.859,-8.798 -31.341,-25.391 -12.472,-16.601 -18.22,-29.85 -17.61,-39.616 0.362,-5.725 3.086,-8.421 8.173,-8.115 6.064,0.361 15.893,11.06 30.01,31.966 C -5.565,-17.781 0.261,-6.175 0,0 M 37.775,-20.629 C 37.836,-22.49 31.494,-31.209 19.092,-46.922 9.083,-59.821 1.205,-66.426 -4.769,-66.687 c -4.041,-0.177 -7.403,1.189 -10.097,4.108 -2.695,2.919 -4.162,6.665 -4.387,11.247 -0.233,4.758 0.923,9.983 3.502,15.669 -8.29,-12.76 -14.57,-21.445 -18.992,-26.016 -4.423,-4.572 -8.807,-6.992 -13.189,-7.256 -4.646,-0.281 -8.67,1.475 -12.092,5.275 -3.423,3.799 -5.346,8.731 -5.752,14.806 -1.132,16.88 9.863,32.727 33.545,47.077 10.393,6.38 18.936,9.685 25.523,9.971 5.596,0.241 8.501,-2.295 8.711,-7.583 0.06,-1.5 -0.221,-3.497 -0.839,-5.993 2.116,4.368 4.243,8.733 6.382,13.096 2.729,-0.515 5.129,-0.736 7.205,-0.663 2.436,0.086 5.581,0.502 9.441,1.243 C 16.617,-4.876 9.158,-18.079 1.815,-31.312 -5.81,-45.222 -9.427,-54.36 -9.236,-58.675 c 0.189,-4.144 1.996,-6.133 5.423,-5.984 3.519,0.152 8.961,4.429 16.435,12.795 7.476,8.366 15.088,18.581 22.889,30.644 0.511,0.895 0.991,1.351 1.439,1.363 0.536,0.014 0.811,-0.243 0.825,-0.772" />
                </g>
                <g transform="translate(1853.8156,1155.5398)" id="g120">
                    <path id="path122" style="fill:#ffffff;fill-opacity:1;fill-rule:nonzero;stroke:none"
                        d="m 0,0 c -0.013,-1.862 -6.658,-10.318 -19.598,-25.516 -10.609,-12.482 -18.79,-18.763 -24.769,-18.782 -3.955,-0.013 -7.278,1.511 -9.986,4.579 -2.708,3.068 -4.087,6.849 -4.125,11.348 -0.035,3.97 0.749,7.659 2.366,11.069 1.615,3.406 5.84,10.169 12.781,20.246 7.214,10.605 10.886,17.342 10.885,20.254 0.006,3.616 -1.933,5.43 -5.813,5.427 -13.134,-0.016 -33.606,-24.02 -59.215,-72.446 -4.311,0.252 -6.907,0.357 -7.784,0.335 -3.075,-0.082 -5.967,-0.34 -8.678,-0.775 6.522,11.095 13.131,22.165 19.826,33.21 11.422,18.952 17.284,30.712 17.202,35.393 -0.04,2.646 -1.193,3.952 -3.452,3.915 -4.601,-0.079 -13.578,-9.735 -26.496,-29.094 -0.774,-1.171 -1.383,-1.806 -1.828,-1.905 -0.446,-0.012 -0.722,0.245 -0.825,0.772 0.077,0.444 0.246,0.803 0.507,1.075 0.819,1.127 1.638,2.255 2.459,3.382 13.223,18.478 22.438,27.692 27.221,27.772 3.076,0.049 5.719,-1.282 7.924,-3.986 2.204,-2.706 3.324,-5.959 3.37,-9.75 0.07,-5.647 -3.213,-13.532 -9.734,-23.692 10.28,14.542 18.364,24.449 24.044,29.78 5.682,5.331 10.987,7.995 15.863,7.998 3.974,0.003 7.314,-1.591 10.01,-4.774 2.695,-3.184 4.024,-7.117 4.003,-11.792 -0.023,-5.913 -4.207,-14.926 -12.381,-27.099 -8.345,-12.443 -12.422,-20.412 -12.41,-23.849 0.019,-3.62 1.831,-5.416 5.438,-5.405 7.849,0.017 21.223,14.044 41.044,41.809 0.459,0.875 0.911,1.311 1.358,1.306 C -0.256,0.797 0.007,0.529 0,0" />
                </g>
                <g transform="translate(1936.418,1153.1387)" id="g124">
                    <path id="path126" style="fill:#ffffff;fill-opacity:1;fill-rule:nonzero;stroke:none"
                        d="m 0,0 c -0.101,-0.26 -0.582,-0.947 -1.434,-2.06 -2.034,-2.518 -4.062,-5.039 -6.084,-7.562 -17.774,-22.337 -30.558,-33.487 -39.002,-33.252 -3.779,0.104 -7.082,1.469 -9.926,4.096 -2.845,2.629 -4.234,5.576 -4.163,8.846 0.065,2.824 2.662,9.088 7.88,18.769 0.049,0.176 0.097,0.352 0.146,0.528 1.769,3.224 2.68,5.63 2.721,7.221 0.05,1.943 -1.373,3.793 -4.278,5.543 -3.429,-1.332 -6.253,-1.977 -8.482,-1.93 -3.123,0.066 -4.666,0.977 -4.633,2.745 0.029,1.496 1.519,2.217 4.468,2.156 2.859,-0.059 5.487,-0.56 7.878,-1.498 4.514,1.826 11.812,8.205 22.064,19.064 5.499,5.81 11.072,8.61 16.67,8.397 6.86,-0.263 10.158,-3.586 9.889,-9.931 -0.178,-4.231 -2.087,-8.366 -5.699,-12.413 -3.613,-4.05 -7.105,-6.013 -10.498,-5.89 -3.839,0.138 -5.7,1.921 -5.585,5.359 0.108,3.172 3.13,6.472 9.104,9.871 2.481,1.408 3.776,3.476 3.882,6.209 0.083,2.116 -1.276,3.229 -4.069,3.332 -3.875,0.144 -8.872,-3.024 -14.919,-9.523 -7.72,-8.122 -13.881,-13.152 -18.574,-15.058 9.181,-4.474 13.656,-9.526 13.488,-15.086 -0.091,-3.092 -2.454,-8.984 -7.019,-17.696 -1.955,-3.658 -2.944,-6.196 -2.982,-7.607 -0.061,-2.299 1.358,-3.483 4.256,-3.564 8.273,-0.238 22.066,13.363 42.268,40.52 0.661,0.853 1.264,1.27 1.798,1.246 C -0.255,0.806 0.024,0.529 0,0 m -7.803,94.168 c -0.791,-1.206 -2.015,-2.965 -3.676,-5.283 -2.543,-3.609 -6.346,-8.982 -11.368,-16.132 -2.424,-3.711 -6.146,-9.276 -11.118,-16.711 C -42.181,44.031 -50.291,31.982 -58.296,19.897 -66.301,7.81 -73.008,-3.19 -78.484,-13.074 c -6.115,-11.025 -10.965,-19.573 -14.629,-25.624 -0.579,-0.877 -1.159,-1.754 -1.737,-2.631 -2.366,0.551 -4.692,0.834 -6.976,0.848 -1.933,0.012 -4.79,-0.236 -8.566,-0.754 2.032,3.435 4.289,7.306 6.783,11.615 5.166,8.881 10.384,17.747 15.654,26.596 2.362,3.943 5.914,9.898 10.701,17.854 16.878,26.825 34.254,53.49 52.128,79.981 3.764,-0.835 6.566,-1.29 8.415,-1.358 1.847,-0.068 4.813,0.172 8.908,0.715" />
                </g>
                <g transform="translate(1987.8392,1092.7272)" id="g128">
                    <path id="path130" style="fill:#ffffff;fill-opacity:1;fill-rule:nonzero;stroke:none"
                        d="m 0,0 c -1.447,-0.701 -6.544,-2.882 -15.234,-6.602 -40.757,-17.588 -60.772,-35.005 -61.365,-50.82 -0.24,-6.613 3.205,-10.042 10.333,-10.333 9.001,-0.37 18.164,4.284 27.653,13.951 9.493,9.667 21.595,26.796 36.741,51.274 C -1.249,-1.686 -0.625,-0.843 0,0 M 80.9,51.055 C 80.78,49.734 75.286,44.209 64.59,34.377 52.74,23.581 37.864,14.143 20.019,5.908 17.594,2.194 15.178,-1.524 12.772,-5.245 c -14.237,-21.988 -28.292,-38.2 -42.399,-48.643 -14.55,-10.769 -26.779,-15.993 -36.964,-15.576 -3.477,0.143 -6.337,1.401 -8.589,3.78 -2.25,2.381 -3.319,5.243 -3.2,8.592 0.641,17.665 21.036,35.531 62.457,52.122 3.408,1.476 8.512,3.511 15.338,6.069 0.68,0.354 1.36,0.707 2.041,1.06 C 10.047,15.428 18.758,28.655 27.59,41.837 17.43,29.945 10.238,22.147 5.844,18.51 1.452,14.873 -2.833,13.183 -7.041,13.446 c -3.594,0.224 -6.632,1.954 -9.13,5.193 -2.497,3.24 -3.634,6.925 -3.397,11.066 0.291,5.019 3.86,12.684 10.825,22.955 7.548,11.03 15.184,22.027 22.907,32.992 2.047,-0.495 4.422,-0.837 7.125,-1.03 2.342,-0.167 5.604,-0.094 9.795,0.211 C 21.155,71.424 11.363,57.96 1.709,44.444 -6.517,32.954 -10.669,25.334 -10.898,21.638 c -0.24,-3.964 1.437,-6.052 5.034,-6.278 9.496,-0.601 25.017,15.315 47.695,47.406 4.66,6.576 9.351,13.139 14.074,19.69 2.04,-0.527 4.546,-0.917 7.515,-1.176 2.43,-0.212 5.469,-0.171 9.125,0.118 C 59.825,65.099 42.581,41 21.553,8.848 c 11.096,4.747 20.627,10.008 28.578,15.838 7.95,5.83 17.054,14.205 27.416,25.092 1.394,1.463 2.271,2.177 2.626,2.144 0.534,-0.051 0.776,-0.34 0.727,-0.867" />
                </g>
                <g transform="translate(2128.3792,1155.6311)" id="g132">
                    <path id="path134" style="fill:#ffffff;fill-opacity:1;fill-rule:nonzero;stroke:none"
                        d="M 0,0 C 0.833,7.094 -2.031,11.033 -8.589,11.776 -16.76,12.701 -27.61,6.168 -40.844,-7.913 -54.072,-22 -61.036,-34.34 -62.033,-44.786 c -0.573,-6.059 2.028,-9.36 7.803,-9.928 9.455,-0.932 20.543,5.814 33.564,20.174 -2.251,3.088 -3.216,6.121 -2.892,9.103 0.469,4.296 2.678,8.538 6.655,12.713 3.978,4.172 7.627,6.069 10.929,5.689 1.425,-0.163 2.306,-1.155 2.637,-2.968 C -1.557,-7.102 -0.441,-3.769 0,0 m 19.578,-20.298 c -0.173,-1.398 -3.21,-4.337 -9.063,-8.848 -8.729,-6.731 -16.306,-9.738 -22.832,-8.994 -2.734,0.311 -5.104,1.109 -7.103,2.397 -13.472,-15.103 -25.123,-22.184 -35.278,-21.184 -5.252,0.517 -9.529,3.114 -12.854,7.811 -3.325,4.694 -4.726,10.068 -4.175,16.131 1.228,13.517 11.338,25.798 30.693,36.529 13.61,7.576 24.641,10.846 32.908,9.911 7.732,-0.878 11.121,-5.372 10.169,-13.429 -1.182,-10.08 -8.034,-21.559 -20.297,-34.568 1.647,-1.249 3.571,-1.997 5.777,-2.248 3.969,-0.452 8.811,0.847 14.561,3.88 5.749,3.034 10.636,6.906 14.66,11.636 1.133,1.102 1.922,1.624 2.368,1.568 0.353,-0.044 0.509,-0.243 0.466,-0.592" />
                </g>
                <g transform="translate(2233.4099,1123.0851)" id="g136">
                    <path id="path138" style="fill:#ffffff;fill-opacity:1;fill-rule:nonzero;stroke:none"
                        d="m 0,0 c -0.309,-2.014 -8.114,-9.431 -23.103,-22.441 -12.402,-10.818 -21.548,-15.843 -27.657,-14.981 -3.839,0.542 -6.875,2.543 -9.113,6.011 -2.243,3.466 -3.072,7.384 -2.48,11.756 0.463,3.409 2.817,7.942 7.098,13.587 -1.044,-1.058 -2.087,-2.117 -3.129,-3.177 -9.511,-9.208 -16.316,-15.348 -20.531,-18.358 -4.619,-3.404 -8.748,-4.879 -12.414,-4.421 -3.841,0.481 -6.881,2.386 -9.139,5.725 -2.257,3.34 -3.13,7.196 -2.606,11.577 0.61,5.078 3.282,10.669 8.061,16.753 9.681,12.415 19.482,24.778 29.402,37.087 2.967,-1.013 5.303,-1.635 7.007,-1.864 1.702,-0.229 4.789,-0.333 9.267,-0.325 -13.024,-15.661 -25.849,-31.414 -38.473,-47.257 -3.826,-4.855 -5.975,-9.303 -6.473,-13.328 -0.486,-3.941 0.93,-6.114 4.249,-6.53 8.843,-1.114 24.959,13.595 49.434,43.714 5.385,6.63 10.804,13.243 16.258,19.841 2.684,-1.02 4.968,-1.671 6.846,-1.953 2.235,-0.336 5.459,-0.51 9.669,-0.531 -8.906,-10.279 -17.723,-20.602 -26.452,-30.966 -12.431,-14.778 -18.836,-24.545 -19.49,-29.17 -0.523,-3.758 1.006,-5.883 4.586,-6.39 6.997,-0.993 19.851,8.414 39.146,27.958 1.66,1.665 3.322,3.328 4.988,4.99 0.946,0.835 1.893,1.671 2.842,2.506 0.581,0.8 1.091,1.167 1.535,1.097 C -0.141,0.826 0.081,0.523 0,0" />
                </g>
            </g>
        </g>
    </g>
</svg>